<?xml version="1.0" encoding="utf-8"?>
<!-- Generator: Adobe Illustrator 26.4.0, SVG Export Plug-In . SVG Version: 6.00 Build 0)  -->
<svg version="1.1" id="레이어_1" xmlns="http://www.w3.org/2000/svg" xmlns:xlink="http://www.w3.org/1999/xlink" x="0px"
	 y="0px" viewBox="0 0 587.4 126.4" style="enable-background:new 0 0 587.4 126.4;" xml:space="preserve">
<style type="text/css">
	.st0{fill:#E57FCA;}
</style>
<path d="M30.4,39.7h10.1l0.8,6.3h0.3c4-4.1,8.4-7.5,14.5-7.5c6.8,0,10.7,3,13,8.3c4.3-4.6,8.9-8.3,15-8.3c10.1,0,14.7,7.1,14.7,19
	V87H86.7V59c0-7.3-2.1-9.9-6.6-9.9c-2.7,0-5.7,1.8-9.1,5.3V87H58.5V59c0-7.3-2.1-9.9-6.6-9.9c-2.7,0-5.7,1.8-9.1,5.3V87H30.4V39.7z"
	/>
<path d="M109.6,105.1l2.3-9.6c0.8,0.3,2.2,0.6,3.3,0.6c4.8,0,7.5-3,8.9-7.2l0.8-2.8l-18.4-46.5h12.5l7.5,22c1.4,4.2,2.6,8.8,4,13.4
	h0.4c1.1-4.4,2.3-9,3.4-13.4l6.5-22h11.9l-16.8,48.8c-4.1,11.2-9.2,17.6-19.8,17.6C113.3,106,111.4,105.7,109.6,105.1z"/>
<path class="st0" d="M160.4,19.5h12.3v17l-0.5,8.9c3.8-3.5,8.5-6.9,14.9-6.9c10.2,0,14.6,7.1,14.6,19V87h-12.4V59
	c0-7.3-2-9.9-6.7-9.9c-3.9,0-6.3,1.9-9.9,5.3V87h-12.3V19.5z"/>
<path class="st0" d="M211.6,63.4c0-15.8,10.9-24.9,22.7-24.9c11.8,0,22.7,9.1,22.7,24.9c0,15.6-10.9,24.8-22.7,24.8
	C222.5,88.2,211.6,79.1,211.6,63.4z M244.4,63.4c0-9-3.6-14.8-10.1-14.8c-6.4,0-10.1,5.8-10.1,14.8c0,8.9,3.6,14.6,10.1,14.6
	C240.8,78,244.4,72.3,244.4,63.4z"/>
<path class="st0" d="M267.5,39.7h10.1l0.8,6.3h0.3c4.1-4.1,9-7.4,15.4-7.4c10.2,0,14.6,7.1,14.6,19V87h-12.4V59c0-7.3-2-9.9-6.7-9.9
	c-3.9,0-6.3,1.9-9.9,5.3V87h-12.3V39.7z"/>
<path class="st0" d="M318.7,63.4c0-15.4,10.7-24.9,22.1-24.9c13,0,19.8,9.6,19.8,22.7c0,2.3-0.3,4.6-0.6,5.7h-29.2
	c1,7.8,6.1,11.8,13.1,11.8c3.9,0,7.3-1.2,10.7-3.3l4.2,7.6c-4.6,3.2-10.7,5.2-16.6,5.2C329,88.2,318.7,79,318.7,63.4z M349.9,58.6
	c0-6.4-2.9-10.5-9-10.5c-5,0-9.4,3.6-10.3,10.5H349.9z"/>
<path class="st0" d="M368.1,105.1l2.3-9.6c0.8,0.3,2.2,0.6,3.3,0.6c4.8,0,7.5-3,8.9-7.2l0.8-2.8l-18.4-46.5h12.5l7.5,22
	c1.4,4.2,2.6,8.8,4,13.4h0.4c1.1-4.4,2.3-9,3.4-13.4l6.5-22h11.9l-16.8,48.8c-4.1,11.2-9.2,17.6-19.8,17.6
	C371.8,106,369.9,105.7,368.1,105.1z"/>
<path d="M420.7,70.4v-21h-6.7v-9.2l7.3-0.6l1.4-12.7h10.4v12.7h11.7v9.8h-11.7v21c0,5.4,2.2,7.9,6.4,7.9c1.5,0,3.4-0.5,4.6-1l2,9
	c-2.5,0.8-5.8,1.8-10,1.8C425,88.2,420.7,81.1,420.7,70.4z"/>
<path d="M454.5,39.7h10.1l0.8,8.4h0.3c3.5-6.2,8.5-9.6,13.4-9.6c2.6,0,4.1,0.4,5.6,1l-2.2,10.7c-1.6-0.5-3-0.8-4.9-0.8
	c-3.7,0-8.2,2.5-10.9,9.3V87h-12.3V39.7z"/>
<path d="M490.1,25.3c0-4.1,3.1-6.8,7.4-6.8c4.2,0,7.4,2.7,7.4,6.8c0,3.9-3.1,6.8-7.4,6.8C493.3,32.1,490.1,29.2,490.1,25.3z
	 M491.3,39.7h12.3V87h-12.3V39.7z"/>
<path d="M517,39.7h10.1l0.8,4.9h0.3c4-3.4,8.9-6.1,13.9-6.1c11.7,0,18.6,9.6,18.6,24.1c0,16.2-9.7,25.6-20.1,25.6
	c-4.1,0-8.1-1.9-11.8-5.2l0.3,7.8v14.4H517V39.7z M548.1,62.7c0-9-2.9-14-9.4-14c-3.2,0-6.1,1.6-9.4,4.9v20.8c3,2.6,6.1,3.6,8.6,3.6
	C543.7,78,548.1,73.1,548.1,62.7z"/>
<polygon class="st0" points="326.6,18.4 310.8,34.1 320.7,34.1 336.5,18.4 "/>
<polygon class="st0" points="237.9,107.6 247.8,107.6 263.6,91.8 253.7,91.8 "/>
</svg>
